<svg width="284" height="295" viewBox="0 0 284 295" fill="none" xmlns="http://www.w3.org/2000/svg">
<path d="M127.5 73.5417V161.792L201.167 207.387L212.5 189.737L148.75 150.025V73.5417H127.5ZM255 147.083V235.333H283.334V147.083H255ZM255 264.75V294.167H283.334V264.75H255ZM226.667 264.75C202.584 283.871 174.25 294.167 141.667 294.167C63.75 294.167 0 227.979 0 147.083C0 66.1874 63.75 0 141.667 0C209.667 0 267.75 50.0085 280.5 117.667H250.75C238 67.6585 194.084 29.4167 141.667 29.4167C79.3335 29.4167 28.3335 82.3667 28.3335 147.083C28.3335 211.8 79.3335 264.75 141.667 264.75C175.667 264.75 205.417 248.571 226.667 225.037V264.75Z" fill="#DE4313"/>
</svg>
